<?xml version="1.0" standalone="no"?>
<!DOCTYPE svg PUBLIC "-//W3C//DTD SVG 20010904//EN"
 "http://www.w3.org/TR/2001/REC-SVG-20010904/DTD/svg10.dtd">
<svg version="1.0" xmlns="http://www.w3.org/2000/svg"
 width="512.000000pt" height="512.000000pt" viewBox="0 0 512.000000 512.000000"
 preserveAspectRatio="xMidYMid meet">
<metadata>
Created by potrace 1.14, written by Peter Selinger 2001-2017
</metadata>
<g transform="translate(0.000000,512.000000) scale(0.100000,-0.100000)"
fill="#000000" stroke="none">
<path d="M1873 4230 c-33 -13 -39 -32 -63 -195 -12 -82 -24 -168 -27 -190 -4
-22 -6 -61 -6 -87 1 -47 1 -48 -35 -53 -205 -33 -261 -59 -343 -162 -58 -73
-156 -215 -188 -273 -111 -203 -196 -413 -241 -592 -7 -26 -18 -49 -24 -51 -7
-3 -43 24 -79 60 l-67 66 0 69 c0 78 -18 122 -52 132 -30 8 -362 8 -383 0 -31
-12 -45 -59 -45 -154 0 -101 14 -144 52 -154 13 -3 88 -6 168 -6 l146 0 62
-63 c34 -34 62 -67 62 -74 0 -6 -7 -17 -16 -24 -21 -17 -74 -102 -103 -164
-53 -114 -51 -87 -51 -725 l1 -596 24 -35 c47 -71 58 -74 275 -77 225 -4 257
3 304 61 29 37 31 43 34 148 l4 109 1278 0 1278 0 4 -109 c4 -119 12 -141 72
-185 26 -20 41 -21 245 -21 l218 0 37 29 c68 51 66 32 66 680 0 504 -2 592
-16 633 -25 77 -43 113 -101 201 -62 93 -63 81 22 164 l50 48 148 0 c154 0
197 9 211 45 8 21 8 193 0 223 -12 44 -49 52 -238 52 -96 0 -182 -3 -191 -6
-28 -11 -45 -60 -45 -132 l0 -69 -67 -67 c-68 -66 -68 -66 -86 -45 -9 12 -17
28 -17 36 0 18 -85 273 -111 332 -79 180 -201 385 -312 526 -81 103 -123 126
-283 158 l-104 20 4 32 c2 17 0 51 -4 76 -4 24 -11 68 -14 98 -4 30 -9 64 -11
75 -2 12 -7 42 -10 68 -12 104 -23 141 -47 160 -22 17 -62 18 -693 17 -368 0
-680 -4 -692 -9z"/>
</g>
</svg>
